<svg width="40" height="40" viewBox="0 0 40 40" fill="none" xmlns="http://www.w3.org/2000/svg">
  <defs>
    <linearGradient id="logo_gradient" x1="0" y1="0" x2="40" y2="40" gradientUnits="userSpaceOnUse">
      <stop offset="0%" stop-color="#2563EB" />
      <stop offset="100%" stop-color="#1E40AF" />
    </linearGradient>
  </defs>
  <rect width="40" height="40" rx="8" fill="url(#logo_gradient)" />
  <path d="M15 11L28 20L15 29V11Z" fill="white" />
  <rect x="5" y="6" width="4" height="4" rx="1" fill="white" fill-opacity="0.3" />
  <rect x="5" y="12" width="4" height="4" rx="1" fill="white" fill-opacity="0.3" />
  <rect x="5" y="18" width="4" height="4" rx="1" fill="white" fill-opacity="0.3" />
  <rect x="5" y="24" width="4" height="4" rx="1" fill="white" fill-opacity="0.3" />
  <rect x="5" y="30" width="4" height="4" rx="1" fill="white" fill-opacity="0.3" />
  <rect x="31" y="6" width="4" height="4" rx="1" fill="white" fill-opacity="0.3" />
  <rect x="31" y="12" width="4" height="4" rx="1" fill="white" fill-opacity="0.3" />
  <rect x="31" y="18" width="4" height="4" rx="1" fill="white" fill-opacity="0.3" />
  <rect x="31" y="24" width="4" height="4" rx="1" fill="white" fill-opacity="0.3" />
  <rect x="31" y="30" width="4" height="4" rx="1" fill="white" fill-opacity="0.3" />
</svg>
